<svg xmlns="http://www.w3.org/2000/svg" xmlns:xlink="http://www.w3.org/1999/xlink" xmlns:inkscape="http://www.inkscape.org/namespaces/inkscape" version="1.1" width="567.551" height="419.494" viewBox="0 0 567.551 419.494">
<defs>
<clipPath id="clip_1">
<path transform="matrix(1,0,0,-1,0,419.494)" d="M0 419.494H567.551V0H0Z"/>
</clipPath>
</defs>
<g inkscape:groupmode="layer" inkscape:label="Layer 1">
<g clip-path="url(#clip_1)">
<path transform="matrix(1,0,0,-1,204.4188,139.9881)" d="M0 0C-19.297-6.462-42.279-12.668-68.475-16.941-96.988-21.593-122.926-22.868-144.534-22.587V96.631H-159.525V-67.247C-140.667-69.633-116.74-70.887-89.349-68.024-51.658-64.085-21.226-53.797 0-44.659V-69.658H15.395V-22.589H0Z" fill="#ae482a"/>
<path transform="matrix(1,0,0,-1,204.4308,84.52838)" d="M0 0-20.26 20.915-40.517 0-20.26-20.917Z" fill="#ae482a"/>
<path transform="matrix(1,0,0,-1,507.689,162.57718)" d="M0 0V22.589C-38.481 15.075-81.361 8.624-128.122 4.549-171.006 .811-210.971-.389-247.432 .003V119.222L-262.402 119.221V-44.658C-244.211-46.074-225.239-46.931-205.539-47.068-127.392-47.611-58.068-36.693 0-22.07V-47.069H14.97V0Z" fill="#ae482a"/>
<path transform="matrix(1,0,0,-1,147.6961,340.9019)" d="M0 0C0-7.097-1.82-13.19-5.028-18.182-5.72-19.258-8.128-22.838-12.77-26.382-24.225-35.128-38.212-35.186-50.237-35.236-59.495-35.274-66.634-34.167-71.818-33.34-81.03-31.871-88.648-29.811-94.208-28.058L-94.209-35.236H-102.804L-102.802-10.996H-94.223V-2.228C-87.495-5.937-80.626-8.756-73.642-10.7-66.658-12.658-59.903-13.622-53.375-13.622-46.22-13.622-38.923-12.614-35.231-10.596-31.554-8.593-29.701-5.655-29.701-1.827-29.701 1.941-31.013 4.834-33.621 6.852-36.215 8.87-42.429 11.021-52.22 13.306L-60.658 15.116C-72.331 17.668-80.854 21.674-86.198 27.119-91.543 32.564-94.223 39.863-94.223 49.003-94.223 59.893-90.161 68.364-82.022 74.418-73.898 80.471-62.468 83.497-47.745 83.497-45.236 83.497-42.732 83.423-40.231 83.273-38.713 83.183-33.117 82.849-27.991 81.94-23.656 81.171-16.988 79.517-8.865 75.573-8.882 67.168-8.898 58.763-8.914 50.359-12.889 53.312-18.751 56.919-26.423 59.344-33.899 61.706-39.688 62.014-44.709 62.014-51.522 62.014-56.667 61.065-60.145 59.136-63.622 57.222-65.347 54.388-65.347 50.62-65.347 45.234-57.921 40.872-43.042 37.504L-41.902 37.208-33.151 35.19C-22.034 32.638-13.881 28.513-8.708 22.831-3.534 17.148 0 9.673 0 0" fill="#ae482a"/>
<path transform="matrix(1,0,0,-1,248.5816,322.1124)" d="M0 0C0-10.557-2.225-18.778-6.67-24.661-11.117-30.545-17.37-33.486-25.43-33.486-30.782-33.486-35.019-31.973-38.145-28.947-41.272-25.921-42.835-21.853-42.835-16.743-42.835-9.884-40.579-5.043-36.061-2.219-31.545 .605-23.59 2.017-12.194 2.017H0ZM13.698 53.456C6.021 60.92-2.189 64.652-21.157 64.652-28.939 64.652-36.306 64.011-43.252 62.735-50.2 61.458-57.046 59.473-63.784 56.784V31.569C-56.35 35.468-49.211 38.309-42.366 40.091-35.523 41.873-28.453 42.765-21.157 42.765-14.21 42.765-8.946 41.537-5.368 39.083-1.79 36.628 0 33.015 0 28.241V23.299H-21.157C-39.641 23.299-53.294 20.155-62.117 13.868-70.941 7.581-75.353-2.153-75.353-15.331-75.353-27.501-71.654-36.982-64.252-43.773-54.438-52.779-42.6-53.545-33.247-53.96-18.488-54.616-6.758-50.18 0-46.899 0-48.278-.001-52.646-.001-54.025H25.215L25.216 13.414C25.216 32.644 21.376 45.992 13.698 53.456" fill="#ae482a"/>
<path transform="matrix(1,0,0,-1,497.341,322.0944)" d="M0 0C0-10.557-2.225-18.778-6.67-24.661-11.117-30.545-17.37-33.486-25.43-33.486-30.782-33.486-35.019-31.973-38.145-28.947-41.272-25.921-42.835-21.853-42.835-16.743-42.835-9.884-40.579-5.043-36.061-2.219-31.545 .605-23.59 2.017-12.194 2.017H0ZM13.698 53.456C6.021 60.92-2.189 64.652-21.157 64.652-28.939 64.652-36.306 64.011-43.252 62.735-50.2 61.458-57.046 59.473-63.784 56.784V31.569C-56.35 35.468-49.211 38.309-42.366 40.091-35.523 41.873-28.453 42.765-21.157 42.765-14.21 42.765-8.946 41.537-5.368 39.083-1.79 36.628 0 33.015 0 28.241V23.299H-21.157C-39.641 23.299-53.294 20.155-62.117 13.868-70.941 7.581-75.353-2.153-75.353-15.331-75.353-27.501-71.654-36.982-64.252-43.773-54.438-52.778-42.6-53.545-33.247-53.96-18.488-54.616-6.758-50.18 0-46.899 0-48.278-.001-52.664-.001-54.043H25.215L25.216 13.414C25.216 32.644 21.376 45.992 13.698 53.456" fill="#ae482a"/>
<path transform="matrix(1,0,0,-1,396.5154,352.00178)" d="M0 0V-24.136H-8.605V-16.992C-10.527-18.655-16.672-23.953-25.825-23.993-28.753-24.003-31.541-24.136-33.812-24.136L-33.803 53.568C-33.803 64.11-42.349 72.655-52.89 72.655H-52.891C-63.432 72.655-71.978 64.11-71.978 53.568L-71.979-24.106-97.187-24.136-97.186 91.758H-71.968V86.668C-71.301 87.814-60.246 93.939-42.059 94.497-39.669 94.567-30.128 94.825-21.821 88.531-20.596 87.535-18.844 85.991-17.041 83.84-8.137 73.203-8.565 60.276-8.585 34.948-8.585 23.744-8.595 12.539-8.605 1.335V0Z" fill="#ae482a"/>
</g>
</g>
</svg>
