<svg xmlns="http://www.w3.org/2000/svg" xmlns:xlink="http://www.w3.org/1999/xlink" xmlns:inkscape="http://www.inkscape.org/namespaces/inkscape" version="1.1" width="1080" height="1080" viewBox="0 0 1080 1080">
<defs>
<clipPath id="clip_1">
<path transform="matrix(1,0,0,-1,0,1080)" d="M0 1080H1080V0H0Z"/>
</clipPath>
</defs>
<g inkscape:groupmode="layer" inkscape:label="Layer 1">
<g clip-path="url(#clip_1)">
<path transform="matrix(1,0,0,-1,285.7683,476.82954)" d="M0 0C89.119 0 206.051 52.463 206.051 94.051 206.051 133.094 131.361 104.236 131.361 125.455 131.361 139.884 153.429 137.338 172.95 132.245 190.774 127.153 206.9 146.674 206.9 164.497 206.9 183.17 192.471 196.75 173.799 196.75 136.454 196.75 103.353 125.455 118.63 96.598 131.361 72.833 194.169 105.085 194.169 96.598 194.169 89.808 151.731 64.345 61.764 65.194-84.221 66.891-12.926 132.245-49.422 132.245-91.011 132.245-90.816 0 0 0"/>
<path transform="matrix(1,0,0,-1,287.4595,497.3711)" d="M0 0C-18.621 1.387-3.53-47.399 27.787-49.731 61.644-52.252 55.728-28.832 71.809-30.029 83.659-30.912 82.903-41.068 99.831-42.329 127.762-44.409 129.167 20.17 101.235 22.25 67.379 24.771 73.7-4.637 0 0"/>
<path transform="matrix(1,0,0,-1,579.2408,405.69453)" d="M0 0C.613-3.491 5.98-31.429 30.613-43.28 48.295-51.786 65.637-47.063 73.206-45.002 90.919-40.178 102.079-29.683 112.884-19.521 123.366-9.663 129.833-.52 136.106 8.438 142.871 18.097 147.98 27.434 155.321 40.74 174.842 75.539 181.632 113.732 161.262 113.732 151.077 113.732 133.254 98.455 133.254 75.539 133.254 63.656 137.497 57.715 140.892 46.681 133.107 40.564 124.957 35.54 116.353 31.549 111.075 29.101 88.303 18.848 56.866 19.521 32.179 20.05 12.899 27.074 1.493 32.31 1.271 38.836 .516 48.225-1.956 59.238-6.52 79.566-9.559 93.427-20.744 98.206-30.57 102.404-46.247 98.735-53.575 88.922-56.332 85.229-57.206 81.496-57.45 80.245-57.45 80.245-57.479 80.096-57.506 79.946-58.489 74.439-37.959 33.084-34.463 24.221-22.794-5.357-50.129-55.072-82.604-65.248-111.505-74.304-135.019-49.147-143.577-58.271-153.925-69.302-132.134-123.343-98.897-128.483-66.496-133.494-38.655-89.644-26.156-69.958-8.803-42.628-2.564-16.227 0 0"/>
<path transform="matrix(1,0,0,-1,746.4627,415.05213)" d="M0 0C-13.58 0-20.37-22.916-20.37-39.891-20.37-61.959 1.698-82.329 23.765-82.329 70.446-82.329 123.917-24.614 123.917 17.824 123.917 39.042 110.337 55.169 98.455 69.597 87.421 81.48 78.085 93.362 67.9 92.514 55.169 91.665 44.135 52.622 61.11 42.437 78.934 32.252 94.211 41.589 110.337 20.37 86.572 8.487 62.807-15.278 39.891-15.278 24.614-15.278 16.126 0 0 0"/>
<path transform="matrix(1,0,0,-1,650.5357,474.4431)" d="M0 0C-11.883 0-21.219 10.185-33.101 10.185-54.32 10.185-85.724-54.32-54.32-54.32-35.647-54.32-28.857-31.404-10.185-31.404 3.395-31.404 10.185-43.286 23.765-43.286 50.925-43.286 57.715 19.521 45.832 19.521 27.16 19.521 15.277 0 0 0"/>
<path transform="matrix(1,0,0,-1,539.9976,580.9308)" d="M0 0C.001-.001 .002-.002 .003-.003 .003-.004 .004-.005 .005-.006Z"/>
<path transform="matrix(1,0,0,-1,849.1852,622.07046)" d="M0 0C26.786 .992-3.968 54.565-23.81 54.565-39.684 54.565-54.565 33.731-49.605 19.842-45.636 7.937-18.85-.992 0 0"/>
<path transform="matrix(1,0,0,-1,539.2343,579.9734)" d="M0 0C-16.42 5.531-43.309-4.893-44.424-16.746-45.818-31.562-32.025-43.821-16.035-43.332 16.932-42.449 25.508-57.206 26.902-42.39 28.482-25.599 16.42-5.531 0 0"/>
<path transform="matrix(1,0,0,-1,400.3761,731.5069)" d="M0 0H-.001C-.001-.001-.002-.002-.003-.003Z"/>
<path transform="matrix(1,0,0,-1,412.1118,692.7638)" d="M0 0-.002-.006C-1.161-4.097-3.09-7.994-5.703-11.705-10.271-18.199-16.952-24.107-25.057-29.265-37.21-37.007-52.533-43.045-68.411-47.109-84.288-51.178-100.727-53.282-115.089-53.28-124.494-53.282-133.011-52.374-139.837-50.587-143.249-49.697-146.234-48.588-148.69-47.3-151.145-46.015-153.06-44.556-154.408-43-156.769-40.222-158.393-37.207-159.452-33.928-160.511-30.646-160.993-27.093-160.993-23.303-160.995-18.164-160.099-12.6-158.605-6.824-156.367 1.842-152.79 10.97-149.053 19.917-145.317 28.869-141.424 37.636-138.574 45.707L-138.569 45.72C-138.175 46.853-137.809 47.961-137.457 49.057-134.134 47.091-130.216 45.567-125.955 44.423-120.042 42.846-113.479 42.023-107.014 42.021-103.235 42.022-99.49 42.304-95.926 42.898L-95.939 42.896C-77.507 45.888-60.666 48.548-45.152 48.544-34.244 48.544-24.007 47.241-14.239 43.876-11.061 42.726-8.53 41.105-6.456 39.132-3.347 36.169-1.25 32.358 .076 28.109 1.4 23.868 1.93 19.217 1.929 14.781 1.933 9.013 1.031 3.595 0 0M38.31 97.83C34.287 102.779 29.565 106.307 24.379 108.541 19.192 110.78 13.578 111.733 7.736 111.732-.926 111.727-10.118 109.666-19.582 106.495-33.773 101.731-48.606 94.435-62.968 87.413-77.317 80.389-91.21 73.64-103.238 69.945-110.403 67.762-115.542 66.926-119.522 66.928-122.6 66.933-125.002 67.406-127.327 68.208-129.11 68.825-130.861 69.661-132.757 70.657-132.591 72.524-132.507 74.311-132.507 76.016-132.508 80.128-132.981 83.776-133.897 86.972-135.264 91.758-137.674 95.562-140.932 98.124-144.183 100.693-148.203 101.929-152.413 101.92-153.984 101.92-155.588 101.752-157.21 101.432-157.217 101.431-157.223 101.429-157.23 101.428-157.243 101.425-157.256 101.424-157.269 101.421L-157.268 101.42C-160.962 100.751-164.08 99.7-166.691 98.255-168.657 97.167-170.329 95.851-171.698 94.349-173.757 92.095-175.103 89.442-175.902 86.643-176.704 83.839-176.988 80.881-176.99 77.839-176.985 72.522-176.123 66.908-175.297 61.29-174.465 55.677-173.665 50.067-173.669 44.916-173.667 40.684-174.204 36.792-175.584 33.412-181.337 19.55-188.028 4.618-193.309-10.216-198.584-25.062-202.482-39.812-202.492-53.482-202.493-61.896-200.991-69.932-197.315-77.176-193.648-84.421-187.803-90.801-179.465-95.896L-179.45-95.906-179.454-95.903C-166.441-103.798-152.705-107.164-138.903-107.157-126.935-107.156-114.917-104.653-103.111-100.486-85.402-94.23-68.144-84.232-52.133-73.087-36.125-61.942-21.366-49.639-8.736-38.744 5.265-26.69 19.781-10.092 30.883 8.062 36.432 17.141 41.125 26.61 44.445 36.115 47.764 45.62 49.715 55.168 49.716 64.402 49.717 70.441 48.877 76.347 47.025 81.976 45.175 87.602 42.308 92.945 38.31 97.83"/>
<path transform="matrix(1,0,0,-1,863.3443,727.28567)" d="M0 0C-3.611 9.622-6.816 16.755-9.053 23.342-11.291 29.942-12.61 35.968-12.618 43.84-12.618 44.917-12.593 46.029-12.54 47.181L-12.539 47.203-11.689 71.88V71.931C-11.688 74.196-12.328 76.337-13.353 78.218-14.898 81.046-17.281 83.344-20.025 84.997-22.774 86.64-25.912 87.655-29.117 87.663-31.349 87.664-33.492 87.181-35.463 86.334-38.919 84.847-41.848 82.308-44.346 79.244-48.087 74.636-50.914 68.783-52.868 62.815-54.814 56.841-55.877 50.771-55.882 45.62-55.879 37.154-54.892 26.487-53.917 14.839-52.941 3.2-51.973-9.397-51.973-21.554-51.967-34.813-53.141-47.546-56.577-57.827-56.894-58.777-57.065-59.755-57.065-60.726-57.066-61.811-56.848-62.881-56.445-63.852-55.738-65.562-54.52-66.936-53.079-68.027-50.905-69.662-48.182-70.759-45.087-71.513-41.992-72.258-38.514-72.634-34.841-72.635-29.307-72.633-23.333-71.778-17.66-69.901-11.992-68.021-6.606-65.115-2.382-60.897 1.12-57.398 3.491-53.151 4.963-48.571 6.437-43.986 7.035-39.059 7.036-34.039 7.025-22.243 3.753-9.877 0 0"/>
<path transform="matrix(1,0,0,-1,866.3417,727.2788)" d="M0 0C.001-.002 .002-.005 .003-.007 .004-.009 .005-.012 .005-.015Z"/>
<path transform="matrix(1,0,0,-1,541.9613,773.94827)" d="M0 0C0-.006-.001-.012-.001-.017-.002-.021-.001-.025-.002-.029Z"/>
<path transform="matrix(1,0,0,-1,537.2091,661.7556)" d="M0 0C.004 2.624-.671 5.012-1.777 7.016-3.442 10.032-5.99 12.175-8.634 13.588-9.961 14.295-11.322 14.823-12.66 15.182-14 15.539-15.314 15.73-16.58 15.731-19.188 15.734-21.649 15.225-23.88 14.234-25.834 13.37-27.6 12.149-29.182 10.658-31.954 8.042-34.185 4.629-36.163 .587-39.124-5.48-41.528-13.014-43.957-21.723-46.381-30.429-48.814-40.305-51.727-50.984L-51.728-50.988C-55.327-64.248-58.175-75.678-60.132-85.499-62.087-95.322-63.16-103.53-63.163-110.417-63.162-114.708-62.745-118.494-61.809-121.839-61.106-124.345-60.104-126.604-58.76-128.581-56.751-131.551-53.961-133.827-50.6-135.338-47.239-136.854-43.333-137.66-38.855-137.944-37.768-138.088-36.654-138.165-35.515-138.165-32.219-138.163-28.741-137.586-25.32-136.482-20.195-134.822-15.182-131.982-11.267-127.924-9.312-125.895-7.639-123.556-6.413-120.918-5.188-118.288-4.416-115.359-4.249-112.21-4.212-111.607-4.194-111.008-4.194-110.413-4.194-106.819-4.846-103.401-5.775-100.132-7.174-95.228-9.185-90.628-10.786-86.146-12.395-81.661-13.584-77.333-13.58-72.992-13.587-60.804-10.309-49.207-6.905-37.32-3.519-25.442-.007-13.274 0 0"/>
<path transform="matrix(1,0,0,-1,613.517,604.2083)" d="M0 0C0 .001 .001 .002 .001 .003L.002 .007Z"/>
<path transform="matrix(1,0,0,-1,776.3245,767.8791)" d="M0 0C-.001-.003-.001-.005-.002-.008-.003-.013-.004-.018-.005-.022Z"/>
<path transform="matrix(1,0,0,-1,715.806,646.5154)" d="M0 0-.005-.013-.006-.016C-1.194-3.351-3.298-7.014-6.102-10.575-10.304-15.924-16.072-21.043-22.509-24.764-28.95-28.494-36.035-30.812-42.885-30.806-48.229-30.798-53.436-29.438-58.379-26.199-63.1-23.097-67.611-18.218-71.559-10.951L-61.331 27.917-61.326 27.936C-60.659 30.527-59.545 32.713-58.062 34.591-55.838 37.4-52.742 39.535-49.002 40.983-45.269 42.429-40.91 43.163-36.342 43.162-31.797 43.163-27.05 42.438-22.522 41.031-15.724 38.924-9.444 35.277-4.958 30.396-2.711 27.955-.905 25.211 .345 22.172 1.594 19.131 2.295 15.79 2.296 12.097 2.296 8.426 1.599 4.399 0 0M58.276-96.491C57.752-94.047 56.995-91.676 55.926-89.466 54.33-86.156 51.998-83.185 48.773-81.083 45.554-78.973 41.508-77.8 36.769-77.808 33.418-77.799 30.44-78.659 28.008-80.204 25.876-81.55 24.185-83.368 22.836-85.404 20.476-88.978 19.07-93.229 17.943-97.582 17.104-100.847 16.44-104.179 15.763-107.315 15.257-109.667 14.742-111.908 14.161-113.907 13.726-115.406 13.252-116.768 12.734-117.931 11.958-119.683 11.08-120.947 10.201-121.685 9.759-122.058 9.319-122.318 8.826-122.501 8.331-122.682 7.771-122.79 7.063-122.791 5.354-122.789 3.884-122.449 2.504-121.826 1.298-121.279 .158-120.502-.941-119.492-2.863-117.73-4.636-115.241-6.236-112.276-8.643-107.832-10.652-102.358-12.527-96.876-14.401-91.414-16.14-85.955-18.177-81.351H-18.176L-25.777-63.109C-21.654-63.87-17.511-64.285-13.377-64.285-5.798-64.287 1.749-62.912 8.999-59.869 16.239-56.833 23.169-52.137 29.554-45.584 29.559-45.58 29.563-45.575 29.567-45.571 29.572-45.566 29.577-45.561 29.583-45.556L29.582-45.555C33.57-41.561 36.443-36.856 38.293-31.742 40.151-26.612 40.995-21.077 40.995-15.36 40.989-3.923 37.641 8.26 32.012 19.725 26.374 31.187 18.44 41.937 9.078 50.425 2.404 56.473-3.779 60.428-9.607 62.862-15.43 65.299-20.888 66.188-25.944 66.184-31.495 66.182-36.547 65.139-41.23 64.039-45.914 62.932-50.241 61.778-54.345 61.372L-54.36 61.371-54.378 61.369C-55.353 61.26-56.405 61.212-57.52 61.212-60.36 61.21-63.595 61.531-67.009 61.867-70.425 62.202-74.023 62.55-77.654 62.551-80.382 62.551-83.133 62.354-85.842 61.777-89.898 60.92-93.89 59.158-97.28 55.99-100.676 52.827-103.404 48.349-105.288 42.31-115.136 11.054-119.404-18.242-122.7-47.691-125.995-77.148-128.325-106.763-134.233-138.828L-134.238-138.851-134.242-138.878C-134.332-139.419-134.379-139.959-134.379-140.495-134.387-142.186-133.885-143.818-133.029-145.15-132.284-146.322-131.304-147.275-130.216-148.063-128.304-149.44-126.043-150.364-123.589-151.08-119.911-152.141-115.766-152.702-111.739-153.023-107.716-153.34-103.819-153.405-100.728-153.405-98.118-153.406-95.615-152.904-93.287-152.001-89.207-150.418-85.681-147.651-82.676-144.243-78.171-139.12-74.774-132.516-72.443-125.656-70.121-118.79-68.875-111.672-68.871-105.421-68.882-95.268-71.661-85.156-74.329-75.277-77.015-65.402-79.59-55.759-79.579-46.785-79.579-44.918-79.46-43.083-79.223-41.273-75.433-45.432-71.334-50.546-67.183-55.927-61.563-63.205-55.828-70.967-50.434-77.607L-50.428-77.614-50.417-77.628C-45.695-83.323-42.617-90.453-39.944-98.122-37.936-103.868-36.154-109.894-33.982-115.773-32.351-120.181-30.498-124.51-28.127-128.566-24.581-134.646-19.813-140.13-13.023-144.096-6.246-148.064 2.441-150.482 13.703-150.855 13.706-150.855 13.708-150.855 13.711-150.855 13.726-150.856 13.74-150.857 13.755-150.857V-150.856C14.497-150.893 15.242-150.912 15.991-150.912 24.774-150.905 33.922-148.447 41.557-143.537 45.371-141.08 48.802-137.999 51.564-134.292 54.324-130.589 56.406-126.257 57.516-121.372 58.534-117.034 59.254-111.821 59.256-106.48 59.255-103.139 58.973-99.749 58.276-96.491"/>
</g>
</g>
</svg>
