<svg xmlns="http://www.w3.org/2000/svg" xmlns:xlink="http://www.w3.org/1999/xlink" xmlns:inkscape="http://www.inkscape.org/namespaces/inkscape" version="1.1" width="424.525" height="200" viewBox="0 0 424.525 200">
<defs>
<clipPath id="clip_1">
<path transform="matrix(1,0,0,-1,0,200)" d="M0 200H424.525V0H0Z"/>
</clipPath>
</defs>
<g inkscape:groupmode="layer" inkscape:label="Layer 1">
<g clip-path="url(#clip_1)">
<path transform="matrix(1,0,0,-1,47.9132,146.6913)" d="M0 0 2.218-2.692-.549-5.009-2.268-2.965-4.735-5.009-6.977-2.318-4.162 0-2.492-2.044ZM3.015 10.566C3.696 10.266 4.231 10.013 4.622 9.805 5.012 9.597 5.419 9.328 5.844 8.995 6.267 8.664 6.574 8.297 6.765 7.9 6.956 7.5 7.052 7.043 7.052 6.528 7.052 5.581 6.835 4.592 6.403 3.563 5.341 2.931 3.999 2.405 2.379 1.981 .76 1.558-.914 1.346-2.641 1.346-5.333 1.346-7.438 1.956-8.958 3.176-10.478 4.397-11.239 6.147-11.239 8.422-11.239 9.901-11.006 11.214-10.541 12.359L-7.825 12.882-7.65 12.709C-7.982 11.628-8.148 10.649-8.148 9.768-8.148 8.189-7.625 7.036-6.578 6.305-5.532 5.574-3.896 5.207-1.67 5.207 .573 5.207 2.442 5.491 3.937 6.054 3.754 6.437 2.641 7.076 .598 7.973-.549 8.472-1.404 8.999-1.968 9.557-2.534 10.113-2.816 10.831-2.816 11.711-2.816 12.908-2.492 14.096-1.844 15.274-.332 16.072 1.362 16.471 3.239 16.471 4.352 16.471 5.399 16.313 6.379 15.998V12.284L6.205 12.21C4.942 12.475 3.828 12.608 2.865 12.608 1.902 12.608 1.038 12.508 .273 12.31 .273 12.078 .44 11.86 .772 11.661 1.105 11.463 1.852 11.096 3.015 10.566" fill="#3b4a4a"/>
<path transform="matrix(1,0,0,-1,63.3375,132.7373)" d="M0 0V-8.92C0-11.113-.466-12.833-1.396-14.079-2.327-15.324-3.697-15.948-5.508-15.948-6.205-15.948-6.936-15.79-7.7-15.475L-8.348-12.111-8.123-11.91C-7.243-12.144-6.379-12.26-5.532-12.26-4.137-12.26-3.439-11.363-3.439-9.568V0Z" fill="#3b4a4a"/>
<path transform="matrix(1,0,0,-1,72.0334,139.3147)" d="M0 0V-3.414L-.249-3.688H-5.831V15H-2.342V.298H-.249Z" fill="#3b4a4a"/>
<path transform="matrix(1,0,0,-1,78.8116,134.63031)" d="M0 0C-.714 0-1.421-.39-2.119-1.171-1.421-2.285-.466-3.125 .748-3.688 1.494-3.14 1.868-2.51 1.868-1.795 1.868-1.28 1.702-.853 1.37-.512 1.038-.171 .581 0 0 0M-2.418 6.18-4.61 8.695-1.77 11.013-.2 9.194 1.944 10.938 4.086 8.422 1.295 6.104-.299 7.949ZM6.952-4.611V-8.148L6.703-8.373H5.781C3.837-8.373 2.002-7.883 .273-6.903-1.736-7.883-3.847-8.373-6.055-8.373H-7.028L-7.276-8.049V-4.736L-7.028-4.386H-3.19C-4.054-3.622-4.793-2.733-5.408-1.72-4.826 .007-3.988 1.39-2.891 2.429-1.794 3.467-.64 3.987 .573 3.987 1.934 3.987 3.014 3.508 3.812 2.554 4.61 1.598 5.009 .49 5.009-.773 5.009-2.169 4.61-3.364 3.812-4.362 4.277-4.379 4.933-4.386 5.781-4.386H6.703Z" fill="#3b4a4a"/>
<path transform="matrix(1,0,0,-1,96.7521,134.85489)" d="M0 0C-.931 .232-2.043 .348-3.339 .348-3.987 .348-4.626 .324-5.258 .274-4.843-1.304-4.036-2.6-2.84-3.613-1.512-2.583-.565-1.379 0 0M5.009-4.611V-7.75L4.759-8.148H2.442C.482-8.148-1.345-7.708-3.04-6.828-4.851-7.708-7.21-8.148-10.117-8.148H-11.238L-11.487-7.8V-4.611L-11.238-4.162H-8.871C-7.791-4.162-6.969-4.145-6.404-4.112-7.202-3.149-7.874-1.845-8.422-.199L-9.494-.449-9.718-.249-9.469 3.09C-7.027 3.771-4.901 4.112-3.09 4.112-1.528 4.112 .382 3.828 2.641 3.265L3.14-.573C2.542-1.968 1.727-3.173 .698-4.187L1.47-4.162H4.759Z" fill="#3b4a4a"/>
<path transform="matrix(1,0,0,-1,107.7911,124.3149)" d="M0 0V-18.688H-6.28L-6.604-18.414V-15L-6.28-14.702H-3.688V0Z" fill="#3b4a4a"/>
<path transform="matrix(1,0,0,-1,0,200)" d="M114.519 56.997H111.031V75.685H114.519Z" fill="#3b4a4a"/>
<path transform="matrix(1,0,0,-1,128.4477,132.7373)" d="M0 0V-8.92C0-11.113-.466-12.833-1.396-14.079-2.327-15.324-3.697-15.948-5.508-15.948-6.205-15.948-6.936-15.79-7.7-15.475L-8.348-12.111-8.123-11.91C-7.243-12.144-6.379-12.26-5.532-12.26-4.137-12.26-3.439-11.363-3.439-9.568V0Z" fill="#3b4a4a"/>
<path transform="matrix(1,0,0,-1,137.1436,139.3147)" d="M0 0V-3.414L-.249-3.688H-5.831V15H-2.342V.298H-.249Z" fill="#3b4a4a"/>
<path transform="matrix(1,0,0,-1,144.3452,135.9266)" d="M0 0C-.366 0-.711-.182-1.035-.549-1.358-.913-1.778-1.578-2.293-2.541L1.345-4.112C1.561-3.497 1.669-2.882 1.669-2.267 1.669-1.604 1.503-1.059 1.171-.635 .839-.212 .448 0 0 0M7.076-3.364V-6.828L6.827-7.076H6.578C5.98-7.076 5.473-6.948 5.058-6.69 4.643-6.434 4.186-6.04 3.687-5.508L1.469-7.701-4.012-5.358C-4.527-6.021-5.026-6.474-5.508-6.715-5.989-6.957-6.604-7.076-7.351-7.076H-7.451L-7.7-6.752V-3.589L-7.451-3.09H-7.077C-6.712-3.09-6.359-2.887-6.019-2.48-5.678-2.073-5.175-1.32-4.51-.225-3.697 1.088-2.87 2.11-2.031 2.841-1.192 3.572-.266 3.937 .748 3.937 1.894 3.937 2.853 3.401 3.626 2.329 4.398 1.258 4.784-.05 4.784-1.595 4.784-1.893 4.759-2.21 4.709-2.541 5.174-2.908 5.831-3.09 6.678-3.09H6.827Z" fill="#3b4a4a"/>
<path transform="matrix(1,0,0,-1,156.131,125.6609)" d="M0 0-2.043 2.444 .598 4.635 2.617 2.193ZM-2.218-4.086-4.336-1.569-1.595 .724 0-1.195 2.243 .624 4.336-1.893 1.619-4.136-.025-2.217ZM4.062-13.356 4.311-13.63V-17.094L4.062-17.342H3.813C3.447-17.342 3.123-17.302 2.841-17.219 2.559-17.136 2.268-16.974 1.968-16.733 1.67-16.491 1.441-16.293 1.283-16.134 1.125-15.976 .872-15.707 .524-15.324L-.723-17.342H-4.959L-5.457-16.845V-13.705L-4.959-13.356H-1.52V-7.076H1.968V-12.833C2.45-13.181 3.098-13.356 3.912-13.356Z" fill="#3b4a4a"/>
<path transform="matrix(1,0,0,-1,162.7093,130.57)" d="M0 0-2.192 2.517 .648 4.835 2.218 3.016 4.361 4.76 6.504 2.243 3.713-.074 2.119 1.77ZM6.753-8.721V-12.184L6.504-12.433H6.255C5.89-12.433 5.566-12.392 5.283-12.31 5-12.227 4.71-12.065 4.411-11.823 4.112-11.582 3.883-11.383 3.726-11.225 3.568-11.067 3.314-10.798 2.966-10.415L1.72-12.433H-2.516L-3.015-11.936V-8.796L-2.516-8.446H.923V-2.167H4.411V-7.923C4.893-8.271 5.541-8.446 6.355-8.446H6.504Z" fill="#3b4a4a"/>
<path transform="matrix(1,0,0,-1,169.213,139.0164)" d="M0 0H4.835C5.167 0 5.333-.166 5.333-.499V-3.489C5.333-3.821 5.167-3.987 4.835-3.987H0C-.331-3.987-.498-3.821-.498-3.489V-.499C-.498-.166-.331 0 0 0" fill="#3b4a4a"/>
<path transform="matrix(1,0,0,-1,193.4087,139.1416)" d="M0 0-2.491-3.861C-4.435-3.861-6.454-3.263-8.547-2.068L-9.868-3.861C-11.446-3.861-12.932-3.272-14.328-2.092L-14.602-3.861H-19.361L-19.611-3.613V-.123L-19.361 .125H-17.368L-16.496 6.156H-13.082L-13.879 .897C-13.065 .449-12.06 .201-10.864 .149L-10.141 6.156H-6.777L-7.4 .674C-6.371 .357-5.083 .175-3.538 .125-3.887 2.55-4.302 4.817-4.784 6.927L-1.345 7.824C-.781 5.349-.332 2.742 0 0" fill="#3b4a4a"/>
<path transform="matrix(1,0,0,-1,203.5253,136.6245)" d="M0 0-.324-.324C-1.121-1.121-2.235-1.91-3.663-2.69H1.993C1.412-1.777 .748-.88 0 0M1.944 2.442C3.339 .781 4.444-.913 5.258-2.641L3.589-6.379H-7.376L-8.621-3.04-8.522-2.69C-7.525-2.193-6.474-1.525-5.369-.685-4.266 .153-3.306 .98-2.491 1.794L-2.118 2.193C-3.381 3.388-5.473 5.125-8.398 7.4V7.675L-6.105 9.743C-3.846 7.982-1.993 6.421-.548 5.058-.349 5.872-.249 7.027-.249 8.522V12.31H3.19V9.045C3.19 7.434 3.098 6.13 2.916 5.134 2.733 4.136 2.409 3.239 1.944 2.442" fill="#3b4a4a"/>
<path transform="matrix(1,0,0,-1,0,200)" d="M214.265 56.997H210.777V75.685H214.265Z" fill="#3b4a4a"/>
<path transform="matrix(1,0,0,-1,222.4132,135.1035)" d="M0 0C-.349 0-.723-.212-1.121-.637-1.52-1.061-1.852-1.654-2.119-2.418-.772-3.43 .83-4.005 2.691-4.138 2.525-2.841 2.201-1.828 1.719-1.097 1.237-.366 .664 0 0 0M.399 4.036C1.295 4.036 2.106 3.745 2.828 3.163 3.551 2.582 4.132 1.823 4.572 .884 5.012-.055 5.345-1.072 5.569-2.169 5.794-3.265 5.905-4.379 5.905-5.508 5.905-10.873 3.613-13.556-.972-13.556-2.035-13.556-3.164-13.308-4.36-12.809L-4.984-9.444-4.759-9.246C-3.414-9.66-2.035-9.868-.623-9.868 .357-9.868 1.1-9.719 1.608-9.42 2.114-9.12 2.458-8.59 2.641-7.826-.814-7.493-3.497-6.205-5.407-3.963-4.959-1.62-4.198 .298-3.128 1.794-2.056 3.289-.881 4.036 .399 4.036" fill="#3b4a4a"/>
<path transform="matrix(1,0,0,-1,244.5162,139.2908)" d="M0 0V-3.464L-.25-3.712H-.349C-1.014-3.712-1.861-3.305-2.891-2.491-2.908-4.651-3.381-6.342-4.312-7.563-5.241-8.783-6.604-9.395-8.398-9.395-9.095-9.395-9.827-9.236-10.591-8.921L-11.239-5.557-11.014-5.357C-10.134-5.59-9.27-5.706-8.422-5.706-7.028-5.706-6.33-4.81-6.33-3.014V6.553H-2.891V.724C-2.243 .424-1.412 .274-.399 .274H-.25Z" fill="#3b4a4a"/>
<path transform="matrix(1,0,0,-1,244.2657,139.0164)" d="M0 0H4.835C5.166 0 5.333-.166 5.333-.499V-3.489C5.333-3.821 5.166-3.987 4.835-3.987H0C-.332-3.987-.498-3.821-.498-3.489V-.499C-.498-.166-.332 0 0 0" fill="#3b4a4a"/>
<path transform="matrix(1,0,0,-1,249.1003,143.00299)" d="M0 0-.498 .497V3.637L0 3.987H2.99V11.013H6.479V0ZM4.934-6.653 3.214-4.611 .748-6.653-1.495-3.963 1.32-1.644 2.99-3.688 5.482-1.644 7.7-4.336Z" fill="#3b4a4a"/>
<path transform="matrix(1,0,0,-1,263.7272,135.1035)" d="M0 0C-.349 0-.723-.208-1.121-.624-1.52-1.039-1.852-1.63-2.118-2.394-.888-3.274 .698-3.773 2.641-3.889 2.458-2.676 2.13-1.725 1.657-1.035 1.184-.346 .632 0 0 0M7.625-4.237V-7.426L7.376-7.9H5.731C5.083-11.671 2.849-13.556-.972-13.556-2.035-13.556-3.164-13.282-4.36-12.735L-4.759-9.444-4.535-9.246C-3.189-9.66-1.886-9.868-.623-9.868 .357-9.868 1.1-9.719 1.608-9.42 2.114-9.12 2.45-8.597 2.617-7.85 .938-7.684-.59-7.264-1.968-6.592-3.348-5.918-4.494-5.044-5.407-3.963-4.959-1.62-4.198 .298-3.128 1.794-2.056 3.289-.881 4.036 .399 4.036 1.445 4.036 2.371 3.637 3.177 2.839 3.983 2.042 4.593 1.066 5.009-.088 5.424-1.243 5.698-2.517 5.831-3.913H7.376Z" fill="#3b4a4a"/>
<path transform="matrix(1,0,0,-1,271.1029,139.0164)" d="M0 0H4.835C5.166 0 5.333-.166 5.333-.499V-3.489C5.333-3.821 5.166-3.987 4.835-3.987H0C-.332-3.987-.498-3.821-.498-3.489V-.499C-.498-.166-.332 0 0 0" fill="#3b4a4a"/>
<path transform="matrix(1,0,0,-1,281.2443,139.0164)" d="M0 0H8.696C8.514 1.228 8.173 2.184 7.675 2.865 7.177 3.546 6.562 3.887 5.831 3.887 4.551 3.887 2.607 3.04 0 1.346ZM14.154-.274V-3.738L13.904-3.987H13.655C13.023-3.987 12.492-3.847 12.06-3.563 11.628-3.281 11.147-2.841 10.615-2.243L9.494-3.987H-5.308L-5.557-3.738V-.249L-5.308 0H-3.339V14.702H.099L.025 4.36C3.065 6.736 5.29 7.923 6.703 7.923 8.115 7.923 9.286 7.218 10.216 5.806 11.147 4.394 11.695 2.617 11.861 .473 12.343 .158 12.973 0 13.755 0H13.904Z" fill="#3b4a4a"/>
<path transform="matrix(1,0,0,-1,295.1485,139.0164)" d="M0 0H4.835C5.166 0 5.333-.166 5.333-.499V-3.489C5.333-3.821 5.166-3.987 4.835-3.987H0C-.332-3.987-.498-3.821-.498-3.489V-.499C-.498-.166-.332 0 0 0" fill="#3b4a4a"/>
<path transform="matrix(1,0,0,-1,302.4993,130.57)" d="M0 0-2.193 2.517 .647 4.835 2.217 3.016 4.36 4.76 6.504 2.243 3.712-.074 2.118 1.77ZM6.752-8.721V-12.184L6.504-12.433H6.254C5.889-12.433 5.565-12.392 5.282-12.31 4.999-12.227 4.709-12.065 4.41-11.823 4.111-11.582 3.883-11.383 3.725-11.225 3.567-11.067 3.314-10.798 2.965-10.415L1.719-12.433H-2.517L-3.015-11.936V-8.796L-2.517-8.446H.922V-2.167H4.41V-7.923C4.892-8.271 5.54-8.446 6.354-8.446H6.504Z" fill="#3b4a4a"/>
<path transform="matrix(1,0,0,-1,309.003,139.0164)" d="M0 0H4.835C5.166 0 5.333-.166 5.333-.499V-3.489C5.333-3.821 5.166-3.987 4.835-3.987H0C-.332-3.987-.498-3.821-.498-3.489V-.499C-.498-.166-.332 0 0 0" fill="#3b4a4a"/>
<path transform="matrix(1,0,0,-1,322.8318,139.2908)" d="M0 0V-3.464L-.249-3.712H-.498C-.963-3.712-1.399-3.613-1.806-3.414-2.213-3.215-2.533-3.003-2.766-2.779-2.999-2.554-3.322-2.2-3.737-1.72L-4.958-3.712H-8.995L-9.493-3.215V-.075L-8.995 .274H-5.856L-5.806 14.976H-2.317V.773C-1.852 .44-1.213 .274-.399 .274H-.249Z" fill="#3b4a4a"/>
<path transform="matrix(1,0,0,-1,328.6128,124.3149)" d="M0 0V-18.688H-6.279L-6.603-18.414V-15L-6.279-14.702H-3.687V0Z" fill="#3b4a4a"/>
<path transform="matrix(1,0,0,-1,340.648,129.9458)" d="M0 0-2.193 2.591 .623 4.909 2.766 2.316ZM4.785-9.345V-12.809L4.535-13.057H4.436C3.771-13.057 2.924-12.65 1.894-11.836 1.877-13.996 1.404-15.687 .473-16.908-.457-18.128-1.819-18.74-3.613-18.74-4.311-18.74-5.042-18.581-5.806-18.266L-6.454-14.902-6.229-14.702C-5.349-14.935-4.486-15.051-3.638-15.051-2.243-15.051-1.545-14.155-1.545-12.359V-2.792H1.894V-8.621C2.542-8.921 3.372-9.071 4.386-9.071H4.535Z" fill="#3b4a4a"/>
<path transform="matrix(1,0,0,-1,345.1833,139.0164)" d="M0 0H4.835C5.166 0 5.333-.166 5.333-.499V-3.489C5.333-3.821 5.166-3.987 4.835-3.987H0C-.332-3.987-.498-3.821-.498-3.489V-.499C-.498-.166-.332 0 0 0" fill="#3b4a4a"/>
<path transform="matrix(1,0,0,-1,356.8696,144.6474)" d="M0 0 2.218-2.692-.549-5.009-2.268-2.966-4.734-5.009-6.977-2.318-4.161 0-2.492-2.044ZM2.417 5.357V1.893L2.168 1.644H1.919C1.553 1.644 1.229 1.685 .946 1.768 .664 1.851 .374 2.013 .075 2.254-.225 2.495-.453 2.694-.61 2.852-.769 3.011-1.022 3.279-1.371 3.663L-2.617 1.644H-6.853L-7.351 2.142V5.281L-6.853 5.631H-3.414V11.91H.075V6.154C.556 5.806 1.204 5.631 2.018 5.631H2.168Z" fill="#3b4a4a"/>
<path transform="matrix(1,0,0,-1,359.0378,139.0164)" d="M0 0H4.835C5.166 0 5.333-.166 5.333-.499V-3.489C5.333-3.821 5.166-3.987 4.835-3.987H0C-.332-3.987-.498-3.821-.498-3.489V-.499C-.498-.166-.332 0 0 0" fill="#3b4a4a"/>
<path transform="matrix(1,0,0,-1,372.1945,132.5882)" d="M0 0C1.96 0 3.525-.606 4.696-1.819 5.868-3.031 6.562-4.651 6.777-6.677L4.734-10.415H-8.323L-8.622-9.892V-6.901L-8.323-6.428H3.464C3.115-5.382 2.549-4.646 1.769-4.222 .988-3.799-.084-3.587-1.445-3.587-2.775-3.587-4.295-3.729-6.006-4.011L-7.377-.847 1.196 8.273H1.495L3.239 5.408-2.941-.249C-1.828-.083-.848 0 0 0" fill="#3b4a4a"/>
<path transform="matrix(1,0,0,-1,387.3195,132.7373)" d="M0 0V-8.92C0-11.113-.465-12.833-1.396-14.079-2.326-15.324-3.697-15.948-5.507-15.948-6.204-15.948-6.936-15.79-7.7-15.475L-8.348-12.111-8.123-11.91C-7.243-12.144-6.379-12.26-5.531-12.26-4.137-12.26-3.439-11.363-3.439-9.568V0Z" fill="#3b4a4a"/>
<path transform="matrix(1,0,0,-1,39.303,163.7793)" d="M0 0H1.958C3.501 0 4.658 .134 5.429 .401 5.696 1.186 5.83 1.928 5.83 2.626 5.83 3.412 5.6 4.046 5.14 4.528 4.68 5.01 3.953 5.252 2.96 5.252H0ZM9.079-8.12V-8.343H6.587L3.116-1.913C2.522-1.943 2.039-1.957 1.669-1.957H0V-8.343H-2.27V7.231H3.315C4.963 7.231 6.167 6.868 6.931 6.141 7.695 5.414 8.077 4.419 8.077 3.16 8.077 1.928 7.795 .644 7.232-.691 6.832-1.002 6.238-1.276 5.451-1.514Z" fill="#98aaa2"/>
<path transform="matrix(1,0,0,-1,54.6564,170.74341)" d="M0 0C.845 0 1.727 .26 2.647 .779V3.383C.793 3.307-.72 3.167-1.892 2.959-2.055 2.604-2.136 2.224-2.136 1.825-2.136 .608-1.424 0 0 0M4.783 5.896V1.468C4.783 .519 4.969-.365 5.34-1.178L5.251-1.379H3.115C3.011-1.156 2.921-.911 2.848-.644 1.869-1.357 .771-1.714-.446-1.714-1.647-1.714-2.578-1.427-3.238-.856-3.898-.285-4.228 .519-4.228 1.558-4.228 2.418-4.013 3.256-3.582 4.071-1.98 4.487 .096 4.725 2.647 4.784V5.563C2.647 6.408 2.455 7.012 2.069 7.377 1.683 7.739 1.097 7.922 .311 7.922-.727 7.922-1.966 7.706-3.405 7.275L-3.56 7.366V9.257C-2.048 9.686-.638 9.901 .668 9.901 2.106 9.901 3.152 9.601 3.804 9.001 4.457 8.399 4.783 7.366 4.783 5.896" fill="#98aaa2"/>
<path transform="matrix(1,0,0,-1,72.0555,171.8555)" d="M0 0V-.267H-2.536L-7.165 5.117V-.267H-9.389V16.42H-7.165V5.808L-2.714 10.724H-.378V10.457L-4.873 5.651Z" fill="#98aaa2"/>
<path transform="matrix(1,0,0,-1,80.8223,165.6041)" d="M0 0V.267C0 1.202-.186 1.869-.557 2.27-.927 2.67-1.484 2.871-2.225 2.871-3.07 2.871-3.805 2.736-4.429 2.469-4.754 1.744-4.963 .921-5.051 0ZM2.114 .245C2.114-.348 2.054-.941 1.935-1.536H-5.118C-5.059-2.692-4.784-3.537-4.295-4.071-3.805-4.605-3.026-4.872-1.958-4.872-.757-4.872 .445-4.649 1.646-4.206L1.802-4.294V-6.119C.586-6.609-.742-6.854-2.181-6.854-3.931-6.854-5.218-6.397-6.042-5.484-6.865-4.572-7.276-3.189-7.276-1.335-7.276 .683-6.831 2.44-5.941 3.939-4.71 4.502-3.471 4.784-2.225 4.784 .668 4.784 2.114 3.27 2.114 .245" fill="#98aaa2"/>
<path transform="matrix(1,0,0,-1,92.3033,165.6041)" d="M0 0V.267C0 1.202-.186 1.869-.557 2.27-.927 2.67-1.484 2.871-2.225 2.871-3.07 2.871-3.805 2.736-4.429 2.469-4.754 1.744-4.963 .921-5.051 0ZM2.114 .245C2.114-.348 2.054-.941 1.935-1.536H-5.118C-5.059-2.692-4.784-3.537-4.295-4.071-3.805-4.605-3.026-4.872-1.958-4.872-.757-4.872 .445-4.649 1.646-4.206L1.802-4.294V-6.119C.586-6.609-.742-6.854-2.181-6.854-3.931-6.854-5.218-6.397-6.042-5.484-6.865-4.572-7.276-3.189-7.276-1.335-7.276 .683-6.831 2.44-5.941 3.939-4.71 4.502-3.471 4.784-2.225 4.784 .668 4.784 2.114 3.27 2.114 .245" fill="#98aaa2"/>
<path transform="matrix(1,0,0,-1,105.053,170.0989)" d="M0 0V-2.024H-8.834L-9.101-.088-2.871 6.92H-8.611V8.945H-.424L-.179 7.032-6.408 0Z" fill="#98aaa2"/>
<path transform="matrix(1,0,0,-1,114.5306,163.7793)" d="M0 0H1.958C3.501 0 4.658 .134 5.429 .401 5.696 1.186 5.83 1.928 5.83 2.626 5.83 3.412 5.6 4.046 5.14 4.528 4.68 5.01 3.953 5.252 2.96 5.252H0ZM9.079-8.12V-8.343H6.587L3.116-1.913C2.522-1.943 2.039-1.957 1.669-1.957H0V-8.343H-2.269V7.231H3.315C4.963 7.231 6.167 6.868 6.931 6.141 7.695 5.414 8.077 4.419 8.077 3.16 8.077 1.928 7.795 .644 7.232-.691 6.832-1.002 6.238-1.276 5.451-1.514Z" fill="#98aaa2"/>
<path transform="matrix(1,0,0,-1,133.0208,165.6041)" d="M0 0V.267C0 1.202-.185 1.869-.556 2.27-.927 2.67-1.483 2.871-2.225 2.871-3.07 2.871-3.804 2.736-4.428 2.469-4.754 1.744-4.962 .921-5.051 0ZM2.114 .245C2.114-.348 2.054-.941 1.936-1.536H-5.117C-5.058-2.692-4.784-3.537-4.294-4.071-3.804-4.605-3.026-4.872-1.958-4.872-.757-4.872 .445-4.649 1.646-4.206L1.803-4.294V-6.119C.586-6.609-.742-6.854-2.18-6.854-3.93-6.854-5.218-6.397-6.041-5.484-6.864-4.572-7.275-3.189-7.275-1.335-7.275 .683-6.831 2.44-5.94 3.939-4.709 4.502-3.471 4.784-2.225 4.784 .667 4.784 2.114 3.27 2.114 .245" fill="#98aaa2"/>
<path transform="matrix(1,0,0,-1,141.365,170.74341)" d="M0 0C.845 0 1.727 .26 2.647 .779V3.383C.793 3.307-.72 3.167-1.892 2.959-2.055 2.604-2.136 2.224-2.136 1.825-2.136 .608-1.424 0 0 0M4.783 5.896V1.468C4.783 .519 4.969-.365 5.34-1.178L5.251-1.379H3.115C3.011-1.156 2.921-.911 2.848-.644 1.869-1.357 .771-1.714-.446-1.714-1.647-1.714-2.578-1.427-3.238-.856-3.898-.285-4.228 .519-4.228 1.558-4.228 2.418-4.013 3.256-3.582 4.071-1.98 4.487 .096 4.725 2.647 4.784V5.563C2.647 6.408 2.455 7.012 2.069 7.377 1.683 7.739 1.097 7.922 .311 7.922-.727 7.922-1.966 7.706-3.405 7.275L-3.56 7.366V9.257C-2.048 9.686-.638 9.901 .667 9.901 2.106 9.901 3.152 9.601 3.804 9.001 4.457 8.399 4.783 7.366 4.783 5.896" fill="#98aaa2"/>
<path transform="matrix(1,0,0,-1,0,200)" d="M151.599 27.877H149.375V44.564004H151.599Z" fill="#98aaa2"/>
<path transform="matrix(1,0,0,-1,170.0444,170.0989)" d="M0 0V-2.024H-9.99V13.551H-.222V11.527H-7.721V6.787H-.667V4.762H-7.721V0Z" fill="#98aaa2"/>
<path transform="matrix(1,0,0,-1,176.6301,165.6704)" d="M0 0C1.38-.326 2.374-.757 2.982-1.291 3.59-1.825 3.895-2.508 3.895-3.338 3.895-4.213 3.672-5.014 3.227-5.741 2.381-6.437 1.143-6.787-.489-6.787-1.75-6.787-3.056-6.557-4.406-6.097L-4.382-4.206-4.227-4.139C-2.937-4.613-1.69-4.858-.489-4.872 .475-4.872 1.232-4.762 1.781-4.539 1.854-4.316 1.892-4.049 1.892-3.738 1.892-3.309 1.688-2.955 1.28-2.681 .872-2.407 .164-2.143-.845-1.891-2.18-1.55-3.126-1.131-3.682-.633-4.238-.138-4.516 .541-4.516 1.401-4.516 2.202-4.287 3.003-3.826 3.804-3.426 4.115-2.885 4.364-2.202 4.55-1.52 4.736-.83 4.828-.133 4.828 1.024 4.828 2.129 4.613 3.182 4.184V2.293L3.026 2.202C1.899 2.663 .838 2.893-.156 2.893-1.001 2.893-1.75 2.758-2.403 2.491-2.477 2.195-2.513 1.928-2.513 1.69-2.513 1.291-2.336 .969-1.979 .724-1.624 .479-.964 .238 0 0" fill="#98aaa2"/>
<path transform="matrix(1,0,0,-1,189.3126,169.6312)" d="M0 0 .601-1.781C-.363-2.447-1.409-2.78-2.536-2.78-4.554-2.78-5.562-1.661-5.562 .578V6.542H-7.253V8.5H-5.562V11.302H-3.337V8.5H.245V6.542H-3.337V.867C-3.337-.171-2.937-.689-2.136-.689-1.513-.689-.801-.46 0 0" fill="#98aaa2"/>
<path transform="matrix(1,0,0,-1,195.2768,170.74341)" d="M0 0C.845 0 1.727 .26 2.647 .779V3.383C.793 3.307-.72 3.167-1.892 2.959-2.055 2.604-2.136 2.224-2.136 1.825-2.136 .608-1.424 0 0 0M4.783 5.896V1.468C4.783 .519 4.969-.365 5.34-1.178L5.251-1.379H3.115C3.011-1.156 2.921-.911 2.848-.644 1.869-1.357 .771-1.714-.446-1.714-1.647-1.714-2.578-1.427-3.238-.856-3.898-.285-4.228 .519-4.228 1.558-4.228 2.418-4.013 3.256-3.582 4.071-1.98 4.487 .096 4.725 2.647 4.784V5.563C2.647 6.408 2.455 7.012 2.069 7.377 1.683 7.739 1.097 7.922 .311 7.922-.727 7.922-1.966 7.706-3.405 7.275L-3.56 7.366V9.257C-2.048 9.686-.638 9.901 .667 9.901 2.106 9.901 3.152 9.601 3.804 9.001 4.457 8.399 4.783 7.366 4.783 5.896" fill="#98aaa2"/>
<path transform="matrix(1,0,0,-1,209.4729,169.6312)" d="M0 0 .6-1.781C-.365-2.447-1.411-2.78-2.537-2.78-4.555-2.78-5.564-1.661-5.564 .578V6.542H-7.254V8.5H-5.564V11.302H-3.338V8.5H.245V6.542H-3.338V.867C-3.338-.171-2.937-.689-2.136-.689-1.514-.689-.801-.46 0 0" fill="#98aaa2"/>
<path transform="matrix(1,0,0,-1,218.5721,165.6041)" d="M0 0V.267C0 1.202-.185 1.869-.556 2.27-.927 2.67-1.483 2.871-2.224 2.871-3.07 2.871-3.804 2.736-4.428 2.469-4.754 1.744-4.962 .921-5.05 0ZM2.114 .245C2.114-.348 2.055-.941 1.936-1.536H-5.117C-5.058-2.692-4.783-3.537-4.294-4.071-3.804-4.605-3.025-4.872-1.957-4.872-.756-4.872 .446-4.649 1.647-4.206L1.803-4.294V-6.119C.586-6.609-.741-6.854-2.18-6.854-3.93-6.854-5.218-6.397-6.041-5.484-6.864-4.572-7.275-3.189-7.275-1.335-7.275 .683-6.831 2.44-5.94 3.939-4.709 4.502-3.471 4.784-2.224 4.784 .668 4.784 2.114 3.27 2.114 .245" fill="#98aaa2"/>
<path transform="matrix(1,0,0,-1,237.24,169.6312)" d="M0 0C.697 1.558 1.046 3.434 1.046 5.629 1.046 7.528 .719 8.907 .066 9.769-.586 10.628-1.639 11.059-3.093 11.059H-6.297V-.468H-3.093C-2.01-.468-.979-.311 0 0M-8.566 13.083H-2.915C-.779 13.083 .808 12.483 1.847 11.28 2.885 10.08 3.404 8.255 3.404 5.808 3.404 4.397 3.233 3.022 2.893 1.679 2.551 .337 2.084-.764 1.491-1.624-.007-2.202-1.595-2.491-3.271-2.491H-8.566Z" fill="#98aaa2"/>
<path transform="matrix(1,0,0,-1,249.7668,165.6041)" d="M0 0V.267C0 1.202-.185 1.869-.556 2.27-.927 2.67-1.483 2.871-2.224 2.871-3.07 2.871-3.804 2.736-4.428 2.469-4.754 1.744-4.962 .921-5.05 0ZM2.114 .245C2.114-.348 2.055-.941 1.936-1.536H-5.117C-5.058-2.692-4.783-3.537-4.294-4.071-3.804-4.605-3.025-4.872-1.957-4.872-.756-4.872 .446-4.649 1.647-4.206L1.803-4.294V-6.119C.586-6.609-.741-6.854-2.18-6.854-3.93-6.854-5.218-6.397-6.041-5.484-6.864-4.572-7.275-3.189-7.275-1.335-7.275 .683-6.831 2.44-5.94 3.939-4.709 4.502-3.471 4.784-2.224 4.784 .667 4.784 2.114 3.27 2.114 .245" fill="#98aaa2"/>
<path transform="matrix(1,0,0,-1,263.6287,161.13141)" d="M0 0-3.96-10.991H-6.853L-10.524 0H-8.143L-5.318-8.945-2.202 0Z" fill="#98aaa2"/>
<path transform="matrix(1,0,0,-1,0,200)" d="M267.411 27.877H265.186V44.564004H267.411Z" fill="#98aaa2"/>
<path transform="matrix(1,0,0,-1,277.0459,170.0989)" d="M0 0C.415 1.068 .623 2.248 .623 3.539 .623 6.06-.267 7.321-2.047 7.321-2.818 7.321-3.546 7.187-4.228 6.92-4.643 5.852-4.85 4.673-4.85 3.383-4.85 .86-3.961-.4-2.18-.4-1.41-.4-.682-.267 0 0M-2.047 9.279C1.216 9.279 2.848 7.439 2.848 3.76 2.848 1.624 2.403-.125 1.513-1.49 .311-2.068-.92-2.359-2.18-2.359-5.444-2.359-7.076-.519-7.076 3.16-7.076 5.207-6.631 6.964-5.741 8.434-4.51 8.997-3.279 9.279-2.047 9.279" fill="#98aaa2"/>
<path transform="matrix(1,0,0,-1,289.4393,170.121)" d="M0 0C.43 1.112 .645 2.344 .645 3.694 .645 4.94 .412 5.859-.056 6.452-.523 7.047-1.239 7.343-2.203 7.343-3.019 7.343-3.827 7.091-4.628 6.587V.09C-3.842-.223-2.982-.377-2.048-.377-1.306-.377-.623-.252 0 0M-1.803 9.301C-.275 9.301 .886 8.844 1.679 7.933 2.473 7.021 2.87 5.681 2.87 3.917 2.87 2.878 2.747 1.873 2.503 .902 2.258-.07 1.943-.86 1.557-1.468 .489-2.046-.683-2.337-1.958-2.337-2.982-2.337-3.872-2.195-4.628-1.913V-7.564H-6.854V8.99H-4.94L-4.806 8.345C-3.902 8.982-2.9 9.301-1.803 9.301" fill="#98aaa2"/>
<path transform="matrix(1,0,0,-1,296.0029,172.5903)" d="M0 0-1.713 1.69 0 3.405 1.691 1.69Z" fill="#98aaa2"/>
<path transform="matrix(1,0,0,-1,312.1776,159.9529)" d="M0 0C0 .534-.185 .958-.556 1.269-.927 1.58-1.461 1.736-2.158 1.736-2.84 1.736-3.515 1.617-4.183 1.381-4.197 1.247-4.205 1.039-4.205 .757-4.205-.385-3.634-1.587-2.491-2.847L-2.358-2.758C-1.439-2.136-.816-1.643-.489-1.278-.163-.915 0-.488 0 0M-2.981-10.479C-1.573-10.479-.423-10.034 .468-9.144L-3.07-5.362C-4.109-6.089-4.824-6.664-5.218-7.086-5.611-7.509-5.807-7.988-5.807-8.522-5.807-9.115-5.57-9.59-5.095-9.945-4.621-10.301-3.916-10.479-2.981-10.479M6.03-11.947V-12.17H3.271L1.758-10.546C.423-11.851-1.246-12.505-3.248-12.505-4.717-12.505-5.881-12.162-6.741-11.481-7.602-10.798-8.032-9.901-8.032-8.789-8.032-7.912-7.743-7.126-7.164-6.43-6.586-5.732-5.629-4.939-4.294-4.049-5.614-2.565-6.274-1.053-6.274 .49-6.274 1.276-6.134 2.055-5.852 2.827-4.709 3.449-3.442 3.76-2.047 3.76-.756 3.76 .278 3.442 1.057 2.804 1.836 2.165 2.225 1.32 2.225 .267 2.225-.549 1.973-1.263 1.469-1.88 .964-2.495 .067-3.233-1.224-4.093L-1.29-4.138 1.669-7.297C2.129-6.215 2.425-4.902 2.559-3.359H4.718C4.495-5.539 3.953-7.356 3.093-8.811Z" fill="#98aaa2"/>
<path transform="matrix(1,0,0,-1,0,200)" d="M327.175 27.877H324.905V43.451H327.175Z" fill="#98aaa2"/>
<path transform="matrix(1,0,0,-1,336.6531,160.8202)" d="M0 0C2.507 0 3.761-1.178 3.761-3.537V-11.302H1.536V-3.983C1.536-2.692 .83-2.048-.578-2.048-1.602-2.048-2.581-2.41-3.515-3.138V-11.302H-5.74V-.311H-3.826L-3.627-1.156C-2.396-.385-1.187 0 0 0" fill="#98aaa2"/>
<path transform="matrix(1,0,0,-1,352.6952,161.13141)" d="M0 0-3.96-10.991H-6.853L-10.524 0H-8.143L-5.318-8.945-2.202 0Z" fill="#98aaa2"/>
<path transform="matrix(1,0,0,-1,360.7945,165.6041)" d="M0 0V.267C0 1.202-.185 1.869-.556 2.27-.927 2.67-1.483 2.871-2.224 2.871-3.07 2.871-3.804 2.736-4.428 2.469-4.754 1.744-4.962 .921-5.05 0ZM2.114 .245C2.114-.348 2.055-.941 1.936-1.536H-5.117C-5.058-2.692-4.783-3.537-4.294-4.071-3.804-4.605-3.025-4.872-1.957-4.872-.756-4.872 .446-4.649 1.647-4.206L1.803-4.294V-6.119C.586-6.609-.741-6.854-2.18-6.854-3.93-6.854-5.218-6.397-6.041-5.484-6.864-4.572-7.275-3.189-7.275-1.335-7.275 .683-6.831 2.44-5.94 3.939-4.709 4.502-3.471 4.784-2.224 4.784 .668 4.784 2.114 3.27 2.114 .245" fill="#98aaa2"/>
<path transform="matrix(1,0,0,-1,369.7841,165.6704)" d="M0 0C1.379-.326 2.373-.757 2.981-1.291 3.59-1.825 3.894-2.508 3.894-3.338 3.894-4.213 3.671-5.014 3.226-5.741 2.381-6.437 1.142-6.787-.49-6.787-1.751-6.787-3.056-6.557-4.405-6.097L-4.383-4.206-4.228-4.139C-2.937-4.613-1.691-4.858-.49-4.872 .474-4.872 1.231-4.762 1.78-4.539 1.853-4.316 1.891-4.049 1.891-3.738 1.891-3.309 1.687-2.955 1.279-2.681 .871-2.407 .163-2.143-.846-1.891-2.181-1.55-3.127-1.131-3.683-.633-4.239-.138-4.517 .541-4.517 1.401-4.517 2.202-4.288 3.003-3.827 3.804-3.427 4.115-2.885 4.364-2.203 4.55-1.521 4.736-.831 4.828-.133 4.828 1.023 4.828 2.128 4.613 3.182 4.184V2.293L3.025 2.202C1.898 2.663 .838 2.893-.156 2.893-1.002 2.893-1.751 2.758-2.403 2.491-2.478 2.195-2.514 1.928-2.514 1.69-2.514 1.291-2.337 .969-1.98 .724-1.624 .479-.965 .238 0 0" fill="#98aaa2"/>
<path transform="matrix(1,0,0,-1,382.4666,169.6312)" d="M0 0 .6-1.781C-.364-2.447-1.41-2.78-2.536-2.78-4.555-2.78-5.563-1.661-5.563 .578V6.542H-7.254V8.5H-5.563V11.302H-3.337V8.5H.245V6.542H-3.337V.867C-3.337-.171-2.937-.689-2.136-.689-1.514-.689-.801-.46 0 0" fill="#98aaa2"/>
<path transform="matrix(1,0,0,-1,386.1595,172.5903)" d="M0 0-1.713 1.69 0 3.405 1.691 1.69Z" fill="#98aaa2"/>
<path transform="matrix(1,0,0,-1,245.1994,96.673)" d="M0 0V-.04H-11.331L-23.045 11.675-28.67 17.3-28.71 17.339-34.335 22.964-39.912 28.543-43.553 32.183V43.552L-34.227 34.229-28.649 28.649-28.604 28.604-23.024 23.025-22.986 22.986-17.361 17.361Z" fill="#3b4a4a"/>
<path transform="matrix(1,0,0,-1,222.4995,96.7126)" d="M0 0H-11.369L-11.714 .345-20.853 9.485V20.853Z" fill="#98aaa2"/>
<path transform="matrix(1,0,0,-1,244.8931,62.257905)" d="M0 0-5.685-5.685-11.369-11.369-16.995-5.745-11.31-.061-11.349-.02-16.929 5.558-16.973 5.603-22.552 11.183-28.178 16.807-42.246 30.877H-51.922L-51.91 29.171V29.17L-51.825 17.717V17.716L-51.656-5.192-51.646-6.661-51.571-16.646-51.563-17.827-51.488-28.098-51.481-28.904V-28.995L-51.441-34.455H-56.501L-56.721-34.235-56.767-34.189-57.032-34.455H-59.481L-59.503-31.452-59.544-25.808-59.586-20-59.627-14.642-59.671-8.546-59.84 14.361-59.923 25.815-59.96 30.877-60.008 37.269-60.019 38.918H-38.917L-22.491 22.491-16.868 16.868-11.288 11.288-5.664 5.664-5.624 5.624Z" fill="#3b4a4a"/>
</g>
</g>
</svg>
